# xmcd
#
# Track frame offsets: 
#        150
#        7860
#        25434
#        38725
#        53013
#        67950
#        87245
#        92295
#        106802
#        126979
#        141245
#        157612
#        171654
#        187521
#        205731
#        224325
#
# Disc length: 3177 seconds
#
# Revision: 0
# Processed by: cddbd v1.5.2PL0 Copyright (c) Steve Scherf et al.
# Submitted via: ExactAudioCopyFreeDBPlugin 1.0
#
DISCID=c50c6710
DTITLE=Genetikk - Achter Tag
DYEAR=2015
DGENRE=Hip-Hop
TTITLE0=Achter Tag
TTITLE1=Rapsuperstar
TTITLE2=Überüberstyle
TTITLE3=Einer von den Guten
TTITLE4=Dago
TTITLE5=Wünsch Dir was
TTITLE6=22mmm (Prelude)
TTITLE7=22mmm
TTITLE8=Caput Mundis
TTITLE9=Mal es in die Wolken
TTITLE10=Mein Kung Fu
TTITLE11=Die Welt heilt
TTITLE12=Don't legalize it feat. Sido
TTITLE13=Jungs aus'm Barrio feat. SSIO
TTITLE14=Sterne feat. Max Herre
TTITLE15=Outro
EXTD=
EXTT0=
EXTT1=
EXTT2=
EXTT3=
EXTT4=
EXTT5=
EXTT6=
EXTT7=
EXTT8=
EXTT9=
EXTT10=
EXTT11=
EXTT12=
EXTT13=
EXTT14=
EXTT15=
PLAYORDER=
